<?xml version="1.0" encoding="utf-8"?>
<!-- Generator: Adobe Illustrator 22.0.1, SVG Export Plug-In . SVG Version: 6.00 Build 0)  -->
<svg version="1.0" id="Camada_1" xmlns="http://www.w3.org/2000/svg" xmlns:xlink="http://www.w3.org/1999/xlink" x="0px" y="0px"
	 viewBox="0 0 622.9 300" style="enable-background:new 0 0 622.9 300;" xml:space="preserve">
<style type="text/css">
	.st0{fill:none;stroke:#FFFFFF;stroke-width:3.5;stroke-miterlimit:10;}
	.st1{fill:#F1943B;}
	.st2{fill:none;stroke:#F1943B;stroke-miterlimit:10;}
	.st3{fill:#F1943B;stroke:#F1943B;stroke-miterlimit:10;}
	.st4{font-family:'Campton-SemiBold';}
	.st5{font-size:150.7289px;}
	.st6{fill:#1F4C50;}
	.st7{fill:#639778;}
	.st8{fill:#D4DB8F;}
	.st9{fill:#EF7830;}
	.st10{opacity:0.93;fill:#1F4C50;}
</style>
<g>
	<g>
		<path class="st0" d="M252,216.2c-12.2,13.3-28,22.7-45.8,27c-1.5,0.4-2.7,1.4-3.2,2.8c-2.9,7.8-10.3,13-18.5,13
			c-8.2,0-15.6-5.2-18.5-13c-0.5-1.4-1.7-2.5-3.2-2.8c-17.7-4.4-33.6-13.7-45.7-27c-2.5-2.7-2.3-6.9,0.4-9.4
			c1.3-1.2,2.9-1.7,4.5-1.7c1.8,0,3.6,0.7,4.9,2.2c9.8,10.7,22.4,18.5,36.6,22.5c1.9,0.5,3.8-0.2,4.9-1.7c3.7-5.2,9.7-8.4,16.1-8.4
			c6.4,0,12.4,3.1,16.1,8.4c1.1,1.6,3.1,2.3,4.9,1.8c14-3.9,26.6-11.7,36.5-22.5c2.5-2.7,6.7-2.9,9.4-0.4c1.3,1.2,2.1,2.8,2.2,4.6
			C253.8,213.2,253.2,214.9,252,216.2z"/>
	</g>
	<g>
		<path class="st0" d="M271.7,182.4c-1.1,3.4-4.8,5.5-8.3,4.3c-1.7-0.5-3.1-1.7-3.9-3.3c-0.8-1.6-1-3.4-0.4-5.1
			c2.5-7.7,3.7-15.7,3.7-23.8c0-6.4-0.8-12.9-2.5-19.2c-0.5-2-2.7-3.4-4.7-3.4c-10.9,0-19.8-8.9-19.8-19.8c0-3.2,0.9-6.4,2.5-9.5
			c1-1.8,0.6-4.1-0.9-5.5c-10.3-9.5-22.8-16.1-36.2-19c-1.7-0.4-3.2-1.4-4.2-2.9c-1-1.5-1.3-3.3-0.9-5c0.4-1.7,1.4-3.2,2.9-4.2
			c1.1-0.7,2.3-1.1,3.5-1.1c0.5,0,1,0.1,1.4,0.2c17.6,3.8,33.6,12.8,46.3,26c1,1,2.3,1.5,3.7,1.4l1.6-0.2c10.9,0,19.8,8.9,19.8,19.8
			c0,3.8-1.1,7.5-3.2,10.8c-0.8,1.1-0.9,2.6-0.5,3.9c2.9,9.1,4.4,18.5,4.4,27.7C276,164,274.5,173.3,271.7,182.4z"/>
	</g>
	<path class="st0" d="M105.8,186.7c-3.5,1.1-7.3-0.9-8.4-4.3c-2.9-9-4.3-18.4-4.3-27.8c0-8.4,1.3-17,3.8-25.5c0.4-1.5,0.1-3-0.9-4.2
		c-3.1-3.7-4.7-8-4.7-12.6c0-10.9,8.9-19.8,19.8-19.8c1.2,0,2.3,0.2,3.5,0.4c1.5,0.2,3-0.2,4.1-1.3c12.7-13.3,28.8-22.4,46.5-26.2
		c1.7-0.4,3.5-0.1,4.9,0.9c1.5,1,2.6,2.5,2.9,4.2c0.4,1.7,0.1,3.5-0.9,5c-1,1.5-2.4,2.5-4.2,2.9c-14.3,3.1-27.4,10.3-38,20.7
		c-1.4,1.3-1.7,3.4-0.9,5.1c1.2,2.7,1.8,5.4,1.8,8.2c0,10.2-7.7,18.6-17.9,19.6c-1.9,0.2-3.5,1.5-4,3.4c-1.7,6.4-2.5,12.9-2.5,19.4
		c0,8.1,1.3,16.1,3.7,23.8c0.5,1.7,0.4,3.5-0.4,5.1C108.9,185,107.5,186.1,105.8,186.7z"/>
	<g>
		<g>
			<path class="st1" d="M229.4,140.3h-19.8v-10.3c0-0.1,0-0.1,0-0.2c0,0,0,0,0,0c0,0,0-0.1,0-0.1c0,0,0,0,0,0c0,0,0-0.1,0-0.1
				c0,0,0,0,0,0c0,0,0-0.1,0-0.1c0,0,0,0,0,0c0,0,0-0.1-0.1-0.1c0,0,0,0,0,0c0,0,0-0.1-0.1-0.1c0,0,0,0,0,0c0,0-0.1-0.1-0.1-0.1
				c0,0,0,0,0,0c0,0-0.1-0.1-0.1-0.1c0,0,0,0,0,0l-22.1-17.5h-3l-22.1,17.5c0,0,0,0,0,0c0,0-0.1,0.1-0.1,0.1c0,0,0,0,0,0
				c0,0-0.1,0.1-0.1,0.1c0,0,0,0,0,0c0,0,0,0.1-0.1,0.1c0,0,0,0,0,0c0,0,0,0.1-0.1,0.1c0,0,0,0,0,0c0,0,0,0.1,0,0.1c0,0,0,0,0,0
				c0,0,0,0.1,0,0.1c0,0,0,0,0,0c0,0,0,0.1,0,0.1c0,0,0,0,0,0c0,0.1,0,0.1,0,0.2v10.3h-19.8c-0.8,0-1.4,0.6-1.4,1.4v41.5
				c0,0.8,0.6,1.4,1.4,1.4h87.9c0.8,0,1.4-0.6,1.4-1.4v-41.5C230.8,140.9,230.2,140.3,229.4,140.3z M142.9,143.2h18.4v4.8h-18.4
				V143.2z M197,181.8h-23.2v-2.9H197V181.8z M173.8,176v-18H184v18H173.8z M197,176h-10.1v-18H197V176z M227.9,181.8h-28v-25.3
				c0-0.8-0.6-1.4-1.4-1.4h-26.1c-0.8,0-1.4,0.6-1.4,1.4v25.3h-28v-30.9h18.4v26.6c0,0.8,0.6,1.4,1.4,1.4c0.8,0,1.4-0.6,1.4-1.4
				v-46.1h26.6c0.8,0,1.4-0.6,1.4-1.4c0-0.8-0.6-1.4-1.4-1.4h-23.9l18.5-14.7l18.5,14.7h-7.4c-0.8,0-1.4,0.6-1.4,1.4
				c0,0.8,0.6,1.4,1.4,1.4h10.1v46.1c0,0.8,0.6,1.4,1.4,1.4s1.4-0.6,1.4-1.4v-26.6h18.4V181.8z M227.9,148h-18.4v-4.8h18.4V148z"/>
			<path class="st1" d="M148.5,155.1c-0.8,0-1.4,0.6-1.4,1.4v5.8c0,0.8,0.6,1.4,1.4,1.4c0.8,0,1.4-0.6,1.4-1.4v-5.8
				C150,155.7,149.3,155.1,148.5,155.1z"/>
			<path class="st1" d="M155.6,155.1c-0.8,0-1.4,0.6-1.4,1.4v5.8c0,0.8,0.6,1.4,1.4,1.4c0.8,0,1.4-0.6,1.4-1.4v-5.8
				C157.1,155.7,156.4,155.1,155.6,155.1z"/>
			<path class="st1" d="M222.3,155.1c-0.8,0-1.4,0.6-1.4,1.4v5.8c0,0.8,0.6,1.4,1.4,1.4c0.8,0,1.4-0.6,1.4-1.4v-5.8
				C223.7,155.7,223.1,155.1,222.3,155.1z"/>
			<path class="st1" d="M215.2,155.1c-0.8,0-1.4,0.6-1.4,1.4v5.8c0,0.8,0.6,1.4,1.4,1.4c0.8,0,1.4-0.6,1.4-1.4v-5.8
				C216.6,155.7,216,155.1,215.2,155.1z"/>
			<path class="st1" d="M185.4,136.2c-3.9,0-7,3.1-7,7c0,3.9,3.1,7,7,7s7-3.1,7-7C192.4,139.4,189.3,136.2,185.4,136.2z
				 M185.4,147.4c-2.3,0-4.1-1.8-4.1-4.1c0-2.3,1.9-4.1,4.1-4.1s4.1,1.9,4.1,4.1C189.5,145.5,187.7,147.4,185.4,147.4z"/>
		</g>
	</g>
</g>
</svg>
