<?xml version="1.0" encoding="utf-8"?>
<!-- Generator: Adobe Illustrator 21.0.2, SVG Export Plug-In . SVG Version: 6.00 Build 0)  -->
<svg version="1.0" id="Camada_1" xmlns="http://www.w3.org/2000/svg" xmlns:xlink="http://www.w3.org/1999/xlink" x="0px" y="0px"
	 viewBox="0 0 1600 300" style="enable-background:new 0 0 1600 300;" xml:space="preserve">
<style type="text/css">
	.st0{opacity:0.95;fill:#1F4C50;}
	.st1{fill:#F1943B;}
	.st2{font-family:'Campton-SemiBold';}
	.st3{font-size:150.7289px;}
	.st4{fill:#FFFFFF;}
	.st5{font-family:'Campton-Light';}
	.st6{fill:none;stroke:#FFFFFF;stroke-width:3.5;stroke-miterlimit:10;}
	.st7{fill:none;stroke:#F1943B;stroke-miterlimit:10;}
	.st8{fill:none;stroke:#FFFFFF;stroke-width:3;stroke-miterlimit:10;}
	.st9{fill:#EAC613;}
	.st10{fill:#F1943B;stroke:#F1943B;stroke-miterlimit:10;}
	.st11{fill:#1F4C50;}
	.st12{fill:#639778;}
	.st13{fill:#D4DB8F;}
	.st14{fill:#EF7830;}
</style>
<g>
	<text transform="matrix(1 0 0 1 293.936 207.5234)"><tspan x="0" y="0" class="st1 st2 st3">Guardioes</tspan><tspan x="749.3" y="0" class="st4 st5 st3">do</tspan><tspan x="934.7" y="0" class="st1 st2 st3">Bem</tspan></text>
	<g>
		<path class="st6" d="M252,216.2c-12.2,13.3-28,22.7-45.8,27c-1.5,0.4-2.7,1.4-3.2,2.8c-2.9,7.8-10.3,13-18.5,13
			c-8.2,0-15.6-5.2-18.5-13c-0.5-1.4-1.7-2.5-3.2-2.8c-17.7-4.4-33.6-13.7-45.7-27c-2.5-2.7-2.3-6.9,0.4-9.4
			c1.3-1.2,2.9-1.7,4.5-1.7c1.8,0,3.6,0.7,4.9,2.2c9.8,10.7,22.4,18.5,36.6,22.5c1.9,0.5,3.8-0.2,4.9-1.7c3.7-5.2,9.7-8.4,16.1-8.4
			c6.4,0,12.4,3.1,16.1,8.4c1.1,1.6,3.1,2.3,4.9,1.8c14-3.9,26.6-11.7,36.5-22.5c2.5-2.7,6.7-2.9,9.4-0.4c1.3,1.2,2.1,2.8,2.2,4.6
			C253.8,213.2,253.2,214.9,252,216.2z"/>
	</g>
	<g>
		<path class="st6" d="M271.7,182.4c-1.1,3.4-4.8,5.5-8.3,4.3c-1.7-0.5-3.1-1.7-3.9-3.3c-0.8-1.6-1-3.4-0.4-5.1
			c2.5-7.7,3.7-15.7,3.7-23.8c0-6.4-0.8-12.9-2.5-19.2c-0.5-2-2.7-3.4-4.7-3.4c-10.9,0-19.8-8.9-19.8-19.8c0-3.2,0.9-6.4,2.5-9.5
			c1-1.8,0.6-4.1-0.9-5.5c-10.3-9.5-22.8-16.1-36.2-19c-1.7-0.4-3.2-1.4-4.2-2.9c-1-1.5-1.3-3.3-0.9-5c0.4-1.7,1.4-3.2,2.9-4.2
			c1.1-0.7,2.3-1.1,3.5-1.1c0.5,0,1,0.1,1.4,0.2c17.6,3.8,33.6,12.8,46.3,26c1,1,2.3,1.5,3.7,1.4l1.6-0.2c10.9,0,19.8,8.9,19.8,19.8
			c0,3.8-1.1,7.5-3.2,10.8c-0.8,1.1-0.9,2.6-0.5,3.9c2.9,9.1,4.4,18.5,4.4,27.7C276,164,274.5,173.3,271.7,182.4z"/>
	</g>
	<path class="st6" d="M105.8,186.7c-3.5,1.1-7.3-0.9-8.4-4.3c-2.9-9-4.3-18.4-4.3-27.8c0-8.4,1.3-17,3.8-25.5c0.4-1.5,0.1-3-0.9-4.2
		c-3.1-3.7-4.7-8-4.7-12.6c0-10.9,8.9-19.8,19.8-19.8c1.2,0,2.3,0.2,3.5,0.4c1.5,0.2,3-0.2,4.1-1.3c12.7-13.3,28.8-22.4,46.5-26.2
		c1.7-0.4,3.5-0.1,4.9,0.9c1.5,1,2.6,2.5,2.9,4.2c0.4,1.7,0.1,3.5-0.9,5c-1,1.5-2.4,2.5-4.2,2.9c-14.3,3.1-27.4,10.3-38,20.7
		c-1.4,1.3-1.7,3.4-0.9,5.1c1.2,2.7,1.8,5.4,1.8,8.2c0,10.2-7.7,18.6-17.9,19.6c-1.9,0.2-3.5,1.5-4,3.4c-1.7,6.4-2.5,12.9-2.5,19.4
		c0,8.1,1.3,16.1,3.7,23.8c0.5,1.7,0.4,3.5-0.4,5.1C108.9,185,107.5,186.1,105.8,186.7z"/>
	<g>
		<g>
			<g>
				<path class="st1" d="M178.8,195.6h-6.4c1.3-3.8,2.4-7.8,3.3-11.7c0.2-0.8-0.3-1.5-1.1-1.7c-0.8-0.2-1.5,0.3-1.7,1.1
					c-0.9,4.2-2.1,8.3-3.5,12.3h-14.2c-0.8,0-1.4,0.6-1.4,1.4s0.6,1.4,1.4,1.4h23.6c0.8,0,1.4-0.6,1.4-1.4S179.6,195.6,178.8,195.6z
					"/>
				<path class="st7" d="M178.8,195.6h-6.4c1.3-3.8,2.4-7.8,3.3-11.7c0.2-0.8-0.3-1.5-1.1-1.7c-0.8-0.2-1.5,0.3-1.7,1.1
					c-0.9,4.2-2.1,8.3-3.5,12.3h-14.2c-0.8,0-1.4,0.6-1.4,1.4s0.6,1.4,1.4,1.4h23.6c0.8,0,1.4-0.6,1.4-1.4S179.6,195.6,178.8,195.6z
					"/>
			</g>
			<g>
				<path class="st1" d="M217.8,143.4c2.2-4.4,1.4-9.6-2.1-13.1c-0.5-0.6-1.4-0.6-2-0.1c-0.6,0.5-0.6,1.4-0.1,2c0,0,0,0,0.1,0.1
					c3,3,3.3,7.7,0.7,11.1c-0.5,0.6-0.4,1.5,0.3,2c0.2,0.1,0.4,0.2,0.6,0.3c4.6,0.8,7.7,5.1,6.9,9.7c-0.6,3.8-3.8,6.7-7.7,7
					c-0.8,0.1-1.4,0.8-1.3,1.6c0,0,0,0,0,0c0,0.3,0.1,0.6,0.1,1c0,4.7-3.8,8.4-8.5,8.5c-2.3,0-4.5-0.9-6.1-2.6c-0.6-0.6-1.5-0.6-2,0
					c-0.1,0.1-0.2,0.2-0.3,0.3c-1,1.8-2.6,3.2-4.6,3.9c-0.4-2.8-0.5-5.7-0.5-8.6l10.4-10.4c0.6-0.6,0.6-1.5,0-2l-2.9-3
					c-0.5-0.5-1.2-0.6-1.7-0.2l-7.1,4.1l-2-12.9c-0.1-0.7-0.7-1.2-1.4-1.2h-5.4c-0.7,0-1.3,0.5-1.4,1.2l-2.1,13.7l-8.5-4.9
					c-0.6-0.3-1.3-0.2-1.7,0.2l-3,3c-0.6,0.6-0.6,1.5,0,2l10.4,10.4c0.1,1.8,0,3.5-0.1,5.3c-3.3,3.3-8.6,3.4-11.9,0.1
					c-1.6-1.6-2.5-3.8-2.5-6c0-0.1,0-0.3,0-0.4c0-0.8-0.6-1.5-1.3-1.5c-0.2,0-0.4,0-0.6,0.1c-0.9,0.3-1.8,0.5-2.8,0.5
					c-3.6,0-6.8-2.3-8-5.7c-0.3-0.7-1.1-1.1-1.8-0.9s-1.1,1.1-0.9,1.8c1.8,5.3,7.1,8.5,12.6,7.6c0.8,6.2,6.4,10.6,12.6,9.9
					c1.5-0.2,3-0.7,4.3-1.4c-0.1,1-0.3,2.1-0.5,3.1c-0.1,0.8,0.4,1.5,1.2,1.7c0,0,0,0,0,0h0.2c0.7,0,1.3-0.5,1.4-1.2
					c0.4-2.4,0.7-4.7,1-6.8l0,0c0.2-2.2,0.3-4.5,0.2-6.7c0-0.4-0.2-0.7-0.4-1l-9.9-9.8l1.2-1.2l9.4,5.4c0.7,0.4,1.6,0.1,1.9-0.6
					c0.1-0.1,0.1-0.3,0.1-0.4l2.3-14.5h3l2.1,13.8c0.1,0.8,0.9,1.3,1.6,1.2c0.2,0,0.3-0.1,0.5-0.2l7.9-4.6l1.2,1.2l-9.8,9.8
					c-0.3,0.3-0.4,0.6-0.4,1c-0.1,3.8,0.1,7.6,0.7,11.3l0,0c1,6.3,2.5,12.5,4.6,18.5h-7.8c-0.8,0-1.4,0.6-1.4,1.4s0.6,1.4,1.4,1.4
					h16.3c0.8,0,1.4-0.6,1.4-1.4s-0.6-1.4-1.4-1.4h-5.5c-2-5.7-3.5-11.6-4.6-17.6c2.3-0.7,4.3-2,5.7-3.9c2,1.5,4.4,2.3,6.8,2.3
					c6.2,0,11.3-5,11.3-11.3c6.1-1.3,10-7.3,8.7-13.5C224,147.8,221.4,144.8,217.8,143.4z"/>
				<path class="st7" d="M217.8,143.4c2.2-4.4,1.4-9.6-2.1-13.1c-0.5-0.6-1.4-0.6-2-0.1c-0.6,0.5-0.6,1.4-0.1,2c0,0,0,0,0.1,0.1
					c3,3,3.3,7.7,0.7,11.1c-0.5,0.6-0.4,1.5,0.3,2c0.2,0.1,0.4,0.2,0.6,0.3c4.6,0.8,7.7,5.1,6.9,9.7c-0.6,3.8-3.8,6.7-7.7,7
					c-0.8,0.1-1.4,0.8-1.3,1.6c0,0,0,0,0,0c0,0.3,0.1,0.6,0.1,1c0,4.7-3.8,8.4-8.5,8.5c-2.3,0-4.5-0.9-6.1-2.6c-0.6-0.6-1.5-0.6-2,0
					c-0.1,0.1-0.2,0.2-0.3,0.3c-1,1.8-2.6,3.2-4.6,3.9c-0.4-2.8-0.5-5.7-0.5-8.6l10.4-10.4c0.6-0.6,0.6-1.5,0-2l-2.9-3
					c-0.5-0.5-1.2-0.6-1.7-0.2l-7.1,4.1l-2-12.9c-0.1-0.7-0.7-1.2-1.4-1.2h-5.4c-0.7,0-1.3,0.5-1.4,1.2l-2.1,13.7l-8.5-4.9
					c-0.6-0.3-1.3-0.2-1.7,0.2l-3,3c-0.6,0.6-0.6,1.5,0,2l10.4,10.4c0.1,1.8,0,3.5-0.1,5.3c-3.3,3.3-8.6,3.4-11.9,0.1
					c-1.6-1.6-2.5-3.8-2.5-6c0-0.1,0-0.3,0-0.4c0-0.8-0.6-1.5-1.3-1.5c-0.2,0-0.4,0-0.6,0.1c-0.9,0.3-1.8,0.5-2.8,0.5
					c-3.6,0-6.8-2.3-8-5.7c-0.3-0.7-1.1-1.1-1.8-0.9s-1.1,1.1-0.9,1.8c1.8,5.3,7.1,8.5,12.6,7.6c0.8,6.2,6.4,10.6,12.6,9.9
					c1.5-0.2,3-0.7,4.3-1.4c-0.1,1-0.3,2.1-0.5,3.1c-0.1,0.8,0.4,1.5,1.2,1.7c0,0,0,0,0,0h0.2c0.7,0,1.3-0.5,1.4-1.2
					c0.4-2.4,0.7-4.7,1-6.8l0,0c0.2-2.2,0.3-4.5,0.2-6.7c0-0.4-0.2-0.7-0.4-1l-9.9-9.8l1.2-1.2l9.4,5.4c0.7,0.4,1.6,0.1,1.9-0.6
					c0.1-0.1,0.1-0.3,0.1-0.4l2.3-14.5h3l2.1,13.8c0.1,0.8,0.9,1.3,1.6,1.2c0.2,0,0.3-0.1,0.5-0.2l7.9-4.6l1.2,1.2l-9.8,9.8
					c-0.3,0.3-0.4,0.6-0.4,1c-0.1,3.8,0.1,7.6,0.7,11.3l0,0c1,6.3,2.5,12.5,4.6,18.5h-7.8c-0.8,0-1.4,0.6-1.4,1.4s0.6,1.4,1.4,1.4
					h16.3c0.8,0,1.4-0.6,1.4-1.4s-0.6-1.4-1.4-1.4h-5.5c-2-5.7-3.5-11.6-4.6-17.6c2.3-0.7,4.3-2,5.7-3.9c2,1.5,4.4,2.3,6.8,2.3
					c6.2,0,11.3-5,11.3-11.3c6.1-1.3,10-7.3,8.7-13.5C224,147.8,221.4,144.8,217.8,143.4z"/>
			</g>
			<g>
				<path class="st1" d="M146,153.4c0.7,0.3,1.6,0,1.9-0.7c0,0,0,0,0,0c0.7-1.6,1.9-3,3.4-3.9c0.6-0.4,0.9-1.2,0.6-1.8
					c-0.5-1.1-0.7-2.3-0.7-3.4c0-4.7,3.8-8.4,8.4-8.4c0.6,0,1.1,0.1,1.7,0.2c0.8,0.2,1.5-0.3,1.7-1.1c0-0.1,0-0.2,0-0.3v-0.2
					c0-4.7,3.7-8.5,8.4-8.5c0.6,0,1.2,0.1,1.7,0.2c0.8,0.2,1.5-0.3,1.7-1.1c0-0.2,0-0.3,0-0.5c-0.1-0.4-0.1-0.8-0.1-1.1
					c0-4.7,3.8-8.5,8.4-8.5c4.2,0,7.8,3.1,8.4,7.3c0.1,0.7,0.7,1.2,1.4,1.2h0.1c4.2,0,7.7,3.1,8.4,7.2c0.1,0.8,0.8,1.3,1.6,1.2
					c0.2,0,0.3-0.1,0.5-0.2c2.1-1.2,4.6-1.4,6.9-0.6c0.7,0.3,1.6-0.1,1.8-0.9c0.3-0.7-0.1-1.6-0.9-1.8l0,0c-2.4-0.8-5.1-0.8-7.5,0
					c-1.4-4.3-5.2-7.4-9.7-7.8c-1.5-6.1-7.7-9.7-13.7-8.2c-4.9,1.2-8.4,5.6-8.6,10.7h-0.5c-5.7,0-10.5,4.2-11.3,9.9h-0.6
					c-6.2,0-11.3,5.1-11.3,11.4c0,1.2,0.2,2.3,0.5,3.4c-1.6,1.2-2.8,2.7-3.6,4.5C145,152.2,145.3,153.1,146,153.4
					C146,153.4,146,153.4,146,153.4z"/>
				<path class="st7" d="M146,153.4c0.7,0.3,1.6,0,1.9-0.7c0,0,0,0,0,0c0.7-1.6,1.9-3,3.4-3.9c0.6-0.4,0.9-1.2,0.6-1.8
					c-0.5-1.1-0.7-2.3-0.7-3.4c0-4.7,3.8-8.4,8.4-8.4c0.6,0,1.1,0.1,1.7,0.2c0.8,0.2,1.5-0.3,1.7-1.1c0-0.1,0-0.2,0-0.3v-0.2
					c0-4.7,3.7-8.5,8.4-8.5c0.6,0,1.2,0.1,1.7,0.2c0.8,0.2,1.5-0.3,1.7-1.1c0-0.2,0-0.3,0-0.5c-0.1-0.4-0.1-0.8-0.1-1.1
					c0-4.7,3.8-8.5,8.4-8.5c4.2,0,7.8,3.1,8.4,7.3c0.1,0.7,0.7,1.2,1.4,1.2h0.1c4.2,0,7.7,3.1,8.4,7.2c0.1,0.8,0.8,1.3,1.6,1.2
					c0.2,0,0.3-0.1,0.5-0.2c2.1-1.2,4.6-1.4,6.9-0.6c0.7,0.3,1.6-0.1,1.8-0.9c0.3-0.7-0.1-1.6-0.9-1.8l0,0c-2.4-0.8-5.1-0.8-7.5,0
					c-1.4-4.3-5.2-7.4-9.7-7.8c-1.5-6.1-7.7-9.7-13.7-8.2c-4.9,1.2-8.4,5.6-8.6,10.7h-0.5c-5.7,0-10.5,4.2-11.3,9.9h-0.6
					c-6.2,0-11.3,5.1-11.3,11.4c0,1.2,0.2,2.3,0.5,3.4c-1.6,1.2-2.8,2.7-3.6,4.5C145,152.2,145.3,153.1,146,153.4
					C146,153.4,146,153.4,146,153.4z"/>
			</g>
			<g>
				<path class="st1" d="M214.2,195.6h-5.9c-0.8,0-1.4,0.6-1.4,1.4s0.6,1.4,1.4,1.4h5.9c0.8,0,1.4-0.6,1.4-1.4
					C215.7,196.2,215,195.6,214.2,195.6z"/>
				<path class="st7" d="M214.2,195.6h-5.9c-0.8,0-1.4,0.6-1.4,1.4s0.6,1.4,1.4,1.4h5.9c0.8,0,1.4-0.6,1.4-1.4
					C215.7,196.2,215,195.6,214.2,195.6z"/>
			</g>
		</g>
	</g>
</g>
</svg>
