<?xml version="1.0" encoding="utf-8"?>
<!-- Generator: Adobe Illustrator 21.0.2, SVG Export Plug-In . SVG Version: 6.00 Build 0)  -->
<svg version="1.0" id="Camada_1" xmlns="http://www.w3.org/2000/svg" xmlns:xlink="http://www.w3.org/1999/xlink" x="0px" y="0px"
	 viewBox="0 0 1600 300" style="enable-background:new 0 0 1600 300;" xml:space="preserve">
<style type="text/css">
	.st0{opacity:0.95;fill:#1F4C50;}
	.st1{fill:none;stroke:#FFFFFF;stroke-width:3.5;stroke-miterlimit:10;}
	.st2{fill:#F1943B;}
	.st3{fill:none;stroke:#F1943B;stroke-miterlimit:10;}
	.st4{fill:none;stroke:#FFFFFF;stroke-width:3;stroke-miterlimit:10;}
	.st5{fill:#EAC613;}
	.st6{fill:#F1943B;stroke:#F1943B;stroke-miterlimit:10;}
	.st7{font-family:'Campton-SemiBold';}
	.st8{font-size:150.7289px;}
	.st9{fill:#FFFFFF;}
	.st10{font-family:'Campton-Light';}
	.st11{fill:#1F4C50;}
	.st12{fill:#639778;}
	.st13{fill:#D4DB8F;}
	.st14{fill:#EF7830;}
</style>
<g>
	<text transform="matrix(1 0 0 1 293.936 207.5234)"><tspan x="0" y="0" class="st2 st7 st8">Guardioes</tspan><tspan x="749.3" y="0" class="st9 st10 st8">do</tspan><tspan x="934.7" y="0" class="st2 st7 st8">Bem</tspan></text>
	<g>
		<path class="st1" d="M252,216.2c-12.2,13.3-28,22.7-45.8,27c-1.5,0.4-2.7,1.4-3.2,2.8c-2.9,7.8-10.3,13-18.5,13
			c-8.2,0-15.6-5.2-18.5-13c-0.5-1.4-1.7-2.5-3.2-2.8c-17.7-4.4-33.6-13.7-45.7-27c-2.5-2.7-2.3-6.9,0.4-9.4
			c1.3-1.2,2.9-1.7,4.5-1.7c1.8,0,3.6,0.7,4.9,2.2c9.8,10.7,22.4,18.5,36.6,22.5c1.9,0.5,3.8-0.2,4.9-1.7c3.7-5.2,9.7-8.4,16.1-8.4
			c6.4,0,12.4,3.1,16.1,8.4c1.1,1.6,3.1,2.3,4.9,1.8c14-3.9,26.6-11.7,36.5-22.5c2.5-2.7,6.7-2.9,9.4-0.4c1.3,1.2,2.1,2.8,2.2,4.6
			C253.8,213.2,253.2,214.9,252,216.2z"/>
	</g>
	<g>
		<path class="st1" d="M271.7,182.4c-1.1,3.4-4.8,5.5-8.3,4.3c-1.7-0.5-3.1-1.7-3.9-3.3c-0.8-1.6-1-3.4-0.4-5.1
			c2.5-7.7,3.7-15.7,3.7-23.8c0-6.4-0.8-12.9-2.5-19.2c-0.5-2-2.7-3.4-4.7-3.4c-10.9,0-19.8-8.9-19.8-19.8c0-3.2,0.9-6.4,2.5-9.5
			c1-1.8,0.6-4.1-0.9-5.5c-10.3-9.5-22.8-16.1-36.2-19c-1.7-0.4-3.2-1.4-4.2-2.9c-1-1.5-1.3-3.3-0.9-5c0.4-1.7,1.4-3.2,2.9-4.2
			c1.1-0.7,2.3-1.1,3.5-1.1c0.5,0,1,0.1,1.4,0.2c17.6,3.8,33.6,12.8,46.3,26c1,1,2.3,1.5,3.7,1.4l1.6-0.2c10.9,0,19.8,8.9,19.8,19.8
			c0,3.8-1.1,7.5-3.2,10.8c-0.8,1.1-0.9,2.6-0.5,3.9c2.9,9.1,4.4,18.5,4.4,27.7C276,164,274.5,173.3,271.7,182.4z"/>
	</g>
	<path class="st1" d="M105.8,186.7c-3.5,1.1-7.3-0.9-8.4-4.3c-2.9-9-4.3-18.4-4.3-27.8c0-8.4,1.3-17,3.8-25.5c0.4-1.5,0.1-3-0.9-4.2
		c-3.1-3.7-4.7-8-4.7-12.6c0-10.9,8.9-19.8,19.8-19.8c1.2,0,2.3,0.2,3.5,0.4c1.5,0.2,3-0.2,4.1-1.3c12.7-13.3,28.8-22.4,46.5-26.2
		c1.7-0.4,3.5-0.1,4.9,0.9c1.5,1,2.6,2.5,2.9,4.2c0.4,1.7,0.1,3.5-0.9,5c-1,1.5-2.4,2.5-4.2,2.9c-14.3,3.1-27.4,10.3-38,20.7
		c-1.4,1.3-1.7,3.4-0.9,5.1c1.2,2.7,1.8,5.4,1.8,8.2c0,10.2-7.7,18.6-17.9,19.6c-1.9,0.2-3.5,1.5-4,3.4c-1.7,6.4-2.5,12.9-2.5,19.4
		c0,8.1,1.3,16.1,3.7,23.8c0.5,1.7,0.4,3.5-0.4,5.1C108.9,185,107.5,186.1,105.8,186.7z"/>
	<g>
		<g>
			<path class="st2" d="M226.9,157.1h-5.5V154c2.3,0,4.1-2.1,4.1-4.7v-3.1c0-2.6-1.9-4.7-4.1-4.7v-3.1c2.3,0,4.1-2.1,4.1-4.7v-3.1
				c0-2.6-1.9-4.7-4.1-4.7h-73.1c-2.3,0-4.1,2.1-4.1,4.7v3.1c0,2.6,1.9,4.7,4.1,4.7v3.1c-2.3,0-4.1,2.1-4.1,4.7v3.1
				c0,2.6,1.9,4.7,4.1,4.7v3.1h-4.1c-1.5,0-2.8,1.4-2.8,3.1v3.1c0,1.7,1.2,3.1,2.8,3.1h2.8v14h-1.4c-0.8,0-1.4,0.7-1.4,1.6
				c0,0.9,0.6,1.6,1.4,1.6h5.5c0.8,0,1.4-0.7,1.4-1.6c0-0.9-0.6-1.6-1.4-1.6h-1.4v-14h71.7v14H220c-0.8,0-1.4,0.7-1.4,1.6
				c0,0.9,0.6,1.6,1.4,1.6h5.5c0.8,0,1.4-0.7,1.4-1.6c0-0.9-0.6-1.6-1.4-1.6h-1.4v-14h2.8c1.5,0,2.8-1.4,2.8-3.1v-3.1
				C229.6,158.5,228.4,157.1,226.9,157.1L226.9,157.1z M146.8,133.8v-3.1c0-0.9,0.6-1.6,1.4-1.6h73.1c0.8,0,1.4,0.7,1.4,1.6v3.1
				c0,0.9-0.6,1.6-1.4,1.6h-73.1C147.5,135.3,146.8,134.6,146.8,133.8L146.8,133.8z M151,138.4h67.6v3.1H151V138.4z M146.8,149.3
				v-3.1c0-0.9,0.6-1.6,1.4-1.6h73.1c0.8,0,1.4,0.7,1.4,1.6v3.1c0,0.9-0.6,1.6-1.4,1.6h-73.1C147.5,150.9,146.8,150.2,146.8,149.3
				L146.8,149.3z M151,154h67.6v3.1H151V154z M226.9,163.3h-82.8v-3.1h82.8V163.3z M226.9,163.3"/>
			<path class="st2" d="M149.6,133.8c0.4,0,0.7-0.2,1-0.5c0.3-0.3,0.4-0.7,0.4-1.1c0-0.4-0.1-0.8-0.4-1.1c-0.3-0.3-0.6-0.5-1-0.5
				c-0.4,0-0.7,0.2-1,0.5c-0.3,0.3-0.4,0.7-0.4,1.1c0,0.4,0.1,0.8,0.4,1.1C148.9,133.6,149.2,133.8,149.6,133.8L149.6,133.8z
				 M149.6,133.8"/>
			<path class="st2" d="M220,133.8c0.4,0,0.7-0.2,1-0.5c0.3-0.3,0.4-0.7,0.4-1.1c0-0.4-0.1-0.8-0.4-1.1c-0.3-0.3-0.6-0.5-1-0.5
				c-0.4,0-0.7,0.2-1,0.5c-0.3,0.3-0.4,0.7-0.4,1.1c0,0.4,0.1,0.8,0.4,1.1C219.2,133.6,219.6,133.8,220,133.8L220,133.8z M220,133.8
				"/>
			<path class="st2" d="M220,149.3c0.4,0,0.7-0.2,1-0.5c0.3-0.3,0.4-0.7,0.4-1.1c0-0.4-0.1-0.8-0.4-1.1c-0.3-0.3-0.6-0.5-1-0.5
				c-0.4,0-0.7,0.2-1,0.5c-0.3,0.3-0.4,0.7-0.4,1.1c0,0.4,0.1,0.8,0.4,1.1C219.2,149.2,219.6,149.3,220,149.3L220,149.3z M220,149.3
				"/>
			<path class="st2" d="M149.6,149.3c0.4,0,0.7-0.2,1-0.5c0.3-0.3,0.4-0.7,0.4-1.1c0-0.4-0.1-0.8-0.4-1.1c-0.3-0.3-0.6-0.5-1-0.5
				c-0.4,0-0.7,0.2-1,0.5c-0.3,0.3-0.4,0.7-0.4,1.1c0,0.4,0.1,0.8,0.4,1.1C148.9,149.2,149.2,149.3,149.6,149.3L149.6,149.3z
				 M149.6,149.3"/>
		</g>
	</g>
</g>
</svg>
